HIERARCHY
ROOT Hips
{
	OFFSET 0.000000 0.000000 0.000000
	CHANNELS 6 Xposition Yposition Zposition Xrotation Yrotation Zrotation
	JOINT LeftUpLeg_virtual
	{
		OFFSET 0.000000 0.000000 0.000000
		CHANNELS 3 Xrotation Yrotation Zrotation
		JOINT LeftUpLeg
		{
			OFFSET 10.205400 -3.823500 0.155100
			CHANNELS 3 Xrotation Yrotation Zrotation
			JOINT LeftLeg
			{
				OFFSET 0.708757 -12.982077 0.567790
				CHANNELS 3 Xrotation Yrotation Zrotation
				JOINT LeftFoot
				{
					OFFSET -0.708756 -10.717838 -2.184338
					CHANNELS 3 Xrotation Yrotation Zrotation
					JOINT LeftToeBase
					{
						OFFSET 0.108149 -7.191104 7.560241
						CHANNELS 3 Xrotation Yrotation Zrotation
						JOINT LeftToe_End
						{
							OFFSET 0.070230 0.081724 4.490308
							CHANNELS 3 Xrotation Yrotation Zrotation
							End Site
							{
								OFFSET 0 0 0
							}
						}
					}
				}
			}
		}
	}
	JOINT RightUpLeg_virtual
	{
		OFFSET 0.000000 0.000000 0.000000
		CHANNELS 3 Xrotation Yrotation Zrotation
		JOINT RightUpLeg
		{
			OFFSET -10.205400 -3.823500 0.005500
			CHANNELS 3 Xrotation Yrotation Zrotation
			JOINT RightLeg
			{
				OFFSET -0.708756 -12.982134 0.610632
				CHANNELS 3 Xrotation Yrotation Zrotation
				JOINT RightFoot
				{
					OFFSET 0.708754 -10.717769 -1.945823
					CHANNELS 3 Xrotation Yrotation Zrotation
					JOINT RightToeBase
					{
						OFFSET -0.108140 -7.191069 7.372968
						CHANNELS 3 Xrotation Yrotation Zrotation
						JOINT RightToe_End
						{
							OFFSET -0.070227 0.081735 4.479403
							CHANNELS 3 Xrotation Yrotation Zrotation
							End Site
							{
								OFFSET 0 0 0
							}
						}
					}
				}
			}
		}
	}
	JOINT Spine_virtual
	{
		OFFSET 0.000000 0.000000 0.000000
		CHANNELS 3 Xrotation Yrotation Zrotation
		JOINT Spine
		{
			OFFSET 0.000000 6.876099 0.125700
			CHANNELS 3 Xrotation Yrotation Zrotation
			JOINT Spine1
			{
				OFFSET 0.000000 5.730043 0.104720
				CHANNELS 3 Xrotation Yrotation Zrotation
				JOINT Spine1_split
				{
					OFFSET 0.000000 5.730043 0.104720
					CHANNELS 3 Xrotation Yrotation Zrotation
					JOINT Spine2
					{
						OFFSET 0.000000 5.730043 0.104720
						CHANNELS 3 Xrotation Yrotation Zrotation
						JOINT Neck_virtual
						{
							OFFSET 0.000000 0.000000 0.000000
							CHANNELS 3 Xrotation Yrotation Zrotation
							JOINT Neck
							{
								OFFSET 0.000000 10.314075 0.188496
								CHANNELS 3 Xrotation Yrotation Zrotation
								JOINT Head
								{
									OFFSET 0.000000 7.643700 -2.377400
									CHANNELS 3 Xrotation Yrotation Zrotation
									JOINT HeadTop_End
									{
										OFFSET 0.000000 43.788605 -13.619600
										CHANNELS 3 Xrotation Yrotation Zrotation
										End Site
										{
											OFFSET 0 0 0
										}
									}
								}
							}
						}
						JOINT LeftShoulder_virtual
						{
							OFFSET 0.000000 0.000000 0.000000
							CHANNELS 3 Xrotation Yrotation Zrotation
							JOINT LeftShoulder
							{
								OFFSET 2.196100 4.412489 0.087492
								CHANNELS 3 Xrotation Yrotation Zrotation
								JOINT LeftShoulder_split
								{
									OFFSET 2.196100 4.412489 0.087492
									CHANNELS 3 Xrotation Yrotation Zrotation
									JOINT LeftArm
									{
										OFFSET 8.771219 -2.981674 -0.026999
										CHANNELS 3 Xrotation Yrotation Zrotation
										JOINT LeftForeArm
										{
											OFFSET 8.512804 0.000000 -0.000000
											CHANNELS 3 Xrotation Yrotation Zrotation
											JOINT LeftHand
											{
												OFFSET 18.484802 0.000000 -0.000000
												CHANNELS 3 Xrotation Yrotation Zrotation
												End Site
												{
													OFFSET 0 0 0
												}
											}
										}
									}
								}
							}
						}
						JOINT RightShoulder_virtual
						{
							OFFSET 0.000000 0.000000 0.000000
							CHANNELS 3 Xrotation Yrotation Zrotation
							JOINT RightShoulder
							{
								OFFSET -2.196100 4.412496 0.070690
								CHANNELS 3 Xrotation Yrotation Zrotation
								JOINT RightShoulder_split
								{
									OFFSET -2.196100 4.412496 0.070690
									CHANNELS 3 Xrotation Yrotation Zrotation
									JOINT RightArm
									{
										OFFSET -8.771282 -2.981682 -0.094208
										CHANNELS 3 Xrotation Yrotation Zrotation
										JOINT RightForeArm
										{
											OFFSET -8.494598 0.000000 0.000000
											CHANNELS 3 Xrotation Yrotation Zrotation
											JOINT RightHand
											{
												OFFSET -18.483803 0.000000 0.000001
												CHANNELS 3 Xrotation Yrotation Zrotation
												End Site
												{
													OFFSET 0 0 0
												}
											}
										}
									}
								}
							}
						}
					}
				}
			}
		}
	}
}
MOTION
Frames: 11
Frame Time: 0.03333333
0.131071 27.745583 0.568729 0.000000 0.000000 0.000000 7.339324 -11.255839 3.843525 -53.466253 3.954744 21.995991 48.819921 2.795253 9.420316 -2.234191 2.225346 -27.468340 1.528364 0.756523 -0.581571 0.000000 0.000000 0.000000 7.039399 -12.206515 4.329780 -27.908464 2.069137 -39.280756 47.168726 3.693987 -0.647078 -26.665998 -11.606149 31.012600 2.800755 1.022701 -0.490774 0.000000 0.000000 0.000000 8.799107 -10.440461 4.048341 7.923651 1.096998 -1.234417 8.040965 2.114983 -0.922748 1.133890 0.418935 0.366968 0.000000 0.000000 0.000000 8.124610 1.220336 -0.475552 -1.544871 0.117538 -0.413924 -17.624238 0.647367 2.265654 0.000000 0.000000 0.000000 7.251620 1.323310 -0.697829 2.501211 -12.923394 -9.342364 -4.696561 -4.352811 -1.799451 -22.625977 -3.752945 -43.404322 -179.423305 -56.860679 179.007947 0.000000 0.000000 0.000000 7.281672 1.366962 -0.486837 0.642288 8.616216 10.401091 1.025140 3.921970 -0.913489 5.605970 5.171114 41.314513 -179.469600 87.269559 178.181331 0.000000 0.000000 0.000000 
0.160717 27.757263 0.616007 0.000000 0.000000 0.000000 7.401418 -11.240645 3.806942 -53.465891 3.851888 22.027027 48.793160 2.859312 9.387308 -2.369775 2.252269 -27.506647 1.569886 0.752530 -0.587436 0.000000 0.000000 0.000000 7.071133 -12.210481 4.292434 -27.748668 2.056750 -39.238959 46.936794 3.633721 -0.643229 -26.675353 -11.640162 31.053947 2.745981 0.989046 -0.508756 0.000000 0.000000 0.000000 8.894179 -10.433772 3.990549 7.890905 1.119470 -1.261553 8.078244 2.106693 -0.947500 1.187493 0.445185 0.338100 0.000000 0.000000 0.000000 8.122522 1.213069 -0.488160 -1.532037 0.098479 -0.398706 -17.560616 0.675759 2.246400 0.000000 0.000000 0.000000 7.315852 1.313883 -0.691566 2.473589 -12.924581 -9.384860 -4.638256 -4.212755 -1.850470 -22.505362 -3.757613 -43.646893 -179.534446 -57.000866 178.882887 0.000000 0.000000 0.000000 7.314281 1.352983 -0.502044 0.684368 8.745908 10.451650 1.025007 4.000925 -0.946152 5.787300 5.042354 41.152962 -179.912210 87.242457 178.687407 0.000000 0.000000 0.000000 
0.214183 27.763493 0.655239 0.000000 0.000000 0.000000 7.478382 -11.302787 3.726984 -53.497631 3.674217 22.086853 48.886430 2.957087 9.370640 -2.581593 2.306837 -27.633818 1.611441 0.751521 -0.583069 0.000000 0.000000 0.000000 7.114543 -12.244606 4.208337 -27.605251 1.994170 -39.144422 46.612674 3.561723 -0.646295 -26.784609 -11.695805 31.040778 2.756002 0.959715 -0.541668 0.000000 0.000000 0.000000 9.009796 -10.433532 3.896316 7.868670 1.175557 -1.326278 8.106542 2.129552 -0.960888 1.148396 0.372230 0.301687 0.000000 0.000000 0.000000 8.103475 1.229683 -0.494955 -1.479018 0.016945 -0.390185 -17.403039 0.564225 2.237795 0.000000 0.000000 0.000000 7.364146 1.323508 -0.699935 2.440502 -12.922960 -9.472399 -4.574507 -4.173884 -1.782702 -22.498312 -3.662048 -44.154414 -179.697127 -57.176207 178.716640 0.000000 0.000000 0.000000 7.339358 1.371822 -0.504061 0.731722 8.944005 10.561243 0.986951 4.093309 -0.968815 6.226896 4.816209 40.845238 -179.748750 87.277100 178.594789 0.000000 0.000000 0.000000 
0.281476 27.758427 0.681166 0.000000 0.000000 0.000000 7.551532 -11.434168 3.624356 -53.554011 3.468002 22.157528 49.082088 3.073599 9.374426 -2.843399 2.374253 -27.826404 1.630986 0.754083 -0.558911 0.000000 0.000000 0.000000 7.168159 -12.323340 4.098201 -27.538170 1.910250 -39.030399 46.290470 3.508702 -0.638548 -26.877035 -11.746468 31.044671 2.751355 0.939744 -0.573782 0.000000 0.000000 0.000000 9.121599 -10.425772 3.791451 7.855728 1.257344 -1.421886 8.120951 2.174385 -0.967400 1.047842 0.291046 0.288614 0.000000 0.000000 0.000000 8.071344 1.266009 -0.498329 -1.416745 -0.097217 -0.392407 -17.217811 0.342490 2.229961 0.000000 0.000000 0.000000 7.391122 1.344122 -0.724965 2.415060 -12.918925 -9.559213 -4.531443 -4.221903 -1.649366 -22.620393 -3.486224 -44.763499 -179.880149 -57.313060 178.549724 0.000000 0.000000 0.000000 7.349951 1.413065 -0.497682 0.778820 9.177593 10.667252 0.881341 4.147796 -0.917780 6.809941 4.500704 40.416357 -178.840758 87.251773 177.754375 0.000000 0.000000 0.000000 
0.347899 27.742390 0.690178 0.000000 0.000000 0.000000 7.620369 -11.595020 3.518410 -53.624696 3.270642 22.220183 49.346939 3.203497 9.400745 -3.120662 2.442901 -28.027726 1.623263 0.761550 -0.516952 0.000000 0.000000 0.000000 7.229174 -12.409492 3.986917 -27.541247 1.834984 -38.926795 46.029799 3.504050 -0.626361 -26.910395 -11.789489 31.127580 2.636517 0.926781 -0.587294 0.000000 0.000000 0.000000 9.215520 -10.400854 3.688407 7.851881 1.349908 -1.543672 8.125262 2.223678 -0.976069 0.962758 0.231848 0.316788 0.000000 0.000000 0.000000 8.035308 1.307013 -0.505836 -1.380673 -0.219631 -0.416615 -17.087702 0.045782 2.215667 0.000000 0.000000 0.000000 7.403773 1.362914 -0.765779 2.403833 -12.932511 -9.611597 -4.514970 -4.300118 -1.538891 -22.837101 -3.243845 -45.303101 179.956688 -57.360031 178.432709 0.000000 0.000000 0.000000 7.351082 1.460847 -0.491517 0.821391 9.417945 10.731358 0.718920 4.102612 -0.798851 7.413004 4.119711 39.915742 -177.321191 87.068752 176.290775 0.000000 0.000000 0.000000 
0.400047 27.720772 0.679380 0.000000 0.000000 0.000000 7.687232 -11.747325 3.426928 -53.693886 3.103096 22.265976 49.625006 3.348851 9.448805 -3.368291 2.500282 -28.182947 1.606500 0.774405 -0.481571 0.000000 0.000000 0.000000 7.296253 -12.478067 3.886484 -27.587742 1.796918 -38.838566 45.861233 3.553780 -0.626167 -26.941005 -11.839131 31.249861 2.456024 0.918375 -0.572828 0.000000 0.000000 0.000000 9.296104 -10.404069 3.604276 7.856343 1.438359 -1.675064 8.122866 2.258626 -0.995253 0.925556 0.188209 0.389065 0.000000 0.000000 0.000000 8.002192 1.345114 -0.524978 -1.381252 -0.332953 -0.464129 -17.032711 -0.280814 2.176701 0.000000 0.000000 0.000000 7.414798 1.374602 -0.820339 2.409276 -12.976564 -9.611049 -4.517309 -4.360668 -1.483646 -23.063672 -2.959407 -45.650915 179.833663 -57.274025 178.389228 0.000000 0.000000 0.000000 7.349717 1.503150 -0.492951 0.861396 9.628629 10.721468 0.505880 3.978471 -0.642237 7.945164 3.682027 39.428367 -175.865965 86.728280 174.885027 0.000000 0.000000 0.000000 
0.424733 27.700989 0.656630 0.000000 0.000000 0.000000 7.735053 -11.867041 3.354103 -53.739157 2.960086 22.311551 49.846061 3.506786 9.523912 -3.530520 2.528337 -28.283895 1.598588 0.791256 -0.464667 0.000000 0.000000 0.000000 7.354720 -12.547643 3.808128 -27.650839 1.808878 -38.769366 45.810827 3.637116 -0.629889 -27.054349 -11.901487 31.299543 2.401375 0.914310 -0.518491 0.000000 0.000000 0.000000 9.350980 -10.436135 3.538539 7.868156 1.517242 -1.806165 8.126023 2.277739 -1.024917 0.980447 0.191387 0.443849 0.000000 0.000000 0.000000 7.978665 1.375066 -0.552845 -1.409681 -0.423126 -0.537029 -17.025529 -0.611043 2.094962 0.000000 0.000000 0.000000 7.433219 1.379501 -0.878868 2.426032 -13.090208 -9.549634 -4.551669 -4.364108 -1.493375 -23.168230 -2.664867 -45.778892 179.780073 -57.021831 178.453664 0.000000 0.000000 0.000000 7.343055 1.535147 -0.502773 0.901103 9.805095 10.631619 0.282791 3.837949 -0.448285 8.334741 3.214524 39.039343 -174.943261 86.294454 174.019614 0.000000 0.000000 0.000000 
0.421017 27.690002 0.615641 0.000000 0.000000 0.000000 7.754280 -11.951028 3.298989 -53.712850 2.834047 22.356638 49.943894 3.665281 9.622838 -3.571765 2.505401 -28.351098 1.587438 0.806790 -0.457387 0.000000 0.000000 0.000000 7.374818 -12.598984 3.750263 -27.733471 1.853796 -38.718686 45.883691 3.734886 -0.625197 -27.265938 -11.969664 31.227673 2.542716 0.915699 -0.438866 0.000000 0.000000 0.000000 9.357999 -10.507181 3.490783 7.877068 1.582319 -1.920176 8.130807 2.284167 -1.055143 1.094570 0.206100 0.479480 0.000000 0.000000 0.000000 7.969788 1.397658 -0.581403 -1.423237 -0.493608 -0.635023 -17.005421 -0.946231 1.955493 0.000000 0.000000 0.000000 7.462672 1.388536 -0.926763 2.447041 -13.287319 -9.446339 -4.618480 -4.296641 -1.585764 -23.070909 -2.389310 -45.749331 179.818855 -56.617709 178.642860 0.000000 0.000000 0.000000 7.336323 1.560473 -0.516775 0.944350 9.942513 10.478411 0.065394 3.704409 -0.260983 8.550687 2.790814 38.843313 -174.651844 85.783597 173.803275 0.000000 0.000000 0.000000 
0.389922 27.687727 0.558605 0.000000 0.000000 0.000000 7.709903 -12.015363 3.267742 -53.565800 2.734814 22.397749 49.880947 3.820337 9.737265 -3.530654 2.430944 -28.392330 1.568472 0.811687 -0.449694 0.000000 0.000000 0.000000 7.316589 -12.654166 3.718976 -27.842672 1.916472 -38.675758 46.075138 3.866046 -0.608923 -27.509910 -12.019434 31.090376 2.744048 0.924323 -0.369490 0.000000 0.000000 0.000000 9.282218 -10.617059 3.466263 7.868725 1.640223 -1.991605 8.129436 2.297811 -1.068108 1.211063 0.203378 0.491548 0.000000 0.000000 0.000000 7.964525 1.430042 -0.594846 -1.380580 -0.531135 -0.754879 -16.883297 -1.284176 1.737032 0.000000 0.000000 0.000000 7.491611 1.418107 -0.947705 2.465409 -13.557585 -9.314989 -4.677959 -4.167276 -1.680072 -22.794493 -2.144265 -45.657776 179.936225 -56.079753 178.932009 0.000000 0.000000 0.000000 7.331534 1.594472 -0.523443 1.003811 10.018884 10.261905 -0.131950 3.644450 -0.103276 8.592089 2.408969 38.819865 -174.833964 85.196330 174.071688 0.000000 0.000000 0.000000 
0.335766 27.692682 0.482706 0.000000 0.000000 0.000000 7.571012 -12.075967 3.274977 -53.254015 2.684692 22.428944 49.670577 3.955159 9.858151 -3.447471 2.316229 -28.453175 1.546424 0.802068 -0.430417 0.000000 0.000000 0.000000 7.144863 -12.738310 3.731485 -27.941442 1.959797 -38.650900 46.349568 4.047785 -0.590674 -27.728138 -12.015997 30.951767 2.858555 0.940231 -0.336234 0.000000 0.000000 0.000000 9.072967 -10.762001 3.469097 7.824152 1.697391 -2.008332 8.112567 2.338214 -1.047391 1.241209 0.191719 0.480949 0.000000 0.000000 0.000000 7.943606 1.483044 -0.572045 -1.253193 -0.546370 -0.906213 -16.578088 -1.560393 1.425254 0.000000 0.000000 0.000000 7.502305 1.478628 -0.925057 2.472031 -13.866609 -9.164552 -4.695303 -4.015840 -1.773259 -22.384881 -1.913992 -45.594122 -179.898222 -55.445604 179.284993 0.000000 0.000000 0.000000 7.319194 1.651316 -0.499516 1.075419 10.035839 9.993384 -0.261141 3.620594 -0.014239 8.465099 2.046536 38.873690 -175.233025 84.489392 174.557765 0.000000 0.000000 0.000000 
0.260935 27.696804 0.394608 0.000000 0.000000 0.000000 7.300113 -12.161771 3.343406 -52.746723 2.699560 22.439215 49.381004 4.048053 9.973137 -3.354792 2.188450 -28.590571 1.533262 0.778758 -0.399024 0.000000 0.000000 0.000000 6.827447 -12.864128 3.803961 -27.998965 1.973244 -38.663263 46.683783 4.277372 -0.579861 -27.923676 -11.957265 30.803501 2.868540 0.962145 -0.342217 0.000000 0.000000 0.000000 8.716111 -10.937876 3.519397 7.738200 1.761781 -1.966278 8.067755 2.405387 -0.980848 1.141484 0.170762 0.494174 0.000000 0.000000 0.000000 7.892607 1.559500 -0.503624 -1.034883 -0.526950 -1.089751 -16.075436 -1.705788 1.003311 0.000000 0.000000 0.000000 7.478356 1.564019 -0.847165 2.458999 -14.110615 -9.001149 -4.609500 -3.834764 -1.803292 -21.874961 -1.661945 -45.613796 -179.740212 -54.762585 179.635860 0.000000 0.000000 0.000000 7.298058 1.727406 -0.427586 1.152861 9.978134 9.663460 -0.329273 3.608648 0.027796 8.330759 1.702685 38.874035 -176.029165 83.595833 175.443804 0.000000 0.000000 0.000000 
